<svg xmlns="http://www.w3.org/2000/svg" width="59" height="9" viewBox="0 0 59 9">
    <path fill="#1C1C1C" fill-rule="nonzero" stroke="none" d="M0 0h3.745l1.446 5.476L6.63 0h3.732v9H8.037V2.136L6.234 9H4.129L2.33 2.136V9H0V0zm17.846 7.514h-3.242L14.158 9h-2.91l3.463-9h3.104l3.462 9H18.3l-.453-1.486zm-.597-1.946l-1.018-3.235-1.011 3.235h2.03zM20.655 0h8.653v2.222h-2.903V9H23.56V2.222h-2.904V0zm9.948 0h5.329c.888 0 1.57.215 2.045.645.476.43.713.961.713 1.596 0 .532-.17.988-.509 1.369-.226.254-.557.454-.993.601.662.156 1.15.423 1.461.802.313.378.469.854.469 1.427 0 .467-.111.886-.333 1.258a2.426 2.426 0 0 1-.912.885c-.238.135-.599.233-1.08.294-.641.082-1.067.123-1.276.123h-4.914V0zm2.872 3.53h1.238c.444 0 .753-.075.926-.224.174-.15.261-.365.261-.648 0-.262-.087-.466-.26-.614-.174-.147-.477-.22-.909-.22h-1.256V3.53zm0 3.536h1.451c.49 0 .836-.085 1.037-.255a.85.85 0 0 0 .302-.684c0-.266-.1-.48-.299-.642-.199-.161-.548-.242-1.046-.242h-1.445v1.823zM40.6 0h7.628v1.922h-4.775v1.43h4.43v1.836h-4.43v1.774h4.914V9H40.6V0zm14.968 7.514h-3.243L51.88 9h-2.91l3.463-9h3.105L59 9h-2.979l-.452-1.486zm-.597-1.946l-1.018-3.235-1.012 3.235h2.03z" opacity=".1"/>
</svg>
