<svg xmlns="http://www.w3.org/2000/svg" width="25" height="23" viewBox="0 0 25 23">
    <path fill="#CDCDCD" fill-rule="evenodd" stroke="none" d="M24.996 7.945c-.043-.717-.89-1.274-2.586-1.701a.945.945 0 0 0 .09-.392V2.926h-.006C22.343.49 12.392.416 11.25.416 10.107.416.157.49.006 2.926H0v2.928c.002.794 1.023 1.415 2.543 1.879a.949.949 0 0 0-.037.212h-.005v2.922c-1.638.422-2.456.974-2.497 1.678H0v2.926c.002.554.498 1.023 1.313 1.413a.967.967 0 0 0-.058.261H1.25v2.927c.004 1.39 3.125 2.254 6.592 2.658.025.004.049.014.075.014.008 0 .015-.004.023-.004.669.076 1.348.135 2.02.176.014.002.026.01.04.01.009 0 .015-.004.023-.006.852.053 1.693.08 2.478.08.785 0 1.626-.027 2.478-.08.008 0 .014.004.023.004.014 0 .026-.006.04-.008.671-.04 1.351-.1 2.02-.176.008 0 .015.004.023.004.026 0 .05-.01.075-.016 3.467-.402 6.588-1.266 6.592-2.658v-2.927h-.008c-.029-.512-.464-.938-1.325-1.296a.93.93 0 0 0 .081-.378v-2.732c1.496-.461 2.499-1.08 2.501-1.866V7.945h-.004zm-3.375 7.661l-.14.124c-.22.194-.585.39-1.065.579v-1.996a6.13 6.13 0 0 0 1.252-.573v1.73a.26.26 0 0 1-.047.136zm-9.318 1.944l-.183.002c-.15.004-.302.004-.452.006v-2.089l.343-.004.066-.002a41.9 41.9 0 0 0 1.257-.041v2.09l-.268.011c-.252.01-.505.02-.763.027zm-1.82.006a49.587 49.587 0 0 1-.569-.014l-.071-.002c-.226-.008-.452-.019-.675-.029v-2.089c.416.02.836.033 1.255.041l.067.002c.114.002.228.004.344.004v2.091c-.081-.002-.163-.002-.242-.002-.037-.002-.074-.002-.108-.002zm-7.527-.954l-.038-.012V14.57c.388.106.807.202 1.249.29V16.9a19.708 19.708 0 0 1-1.056-.256c-.051-.016-.104-.028-.155-.043zm8.783 3.463c.116.002.23.002.344.005v2.09a42.917 42.917 0 0 1-1.666-.049v-2.088c.417.02.836.032 1.257.04.022 0 .043 0 .065.002zm1.587-.002c.421-.008.84-.02 1.257-.04v2.088c-.535.027-1.09.043-1.666.05V20.07l.344-.007h.065zm3.34-.19v2.077c-.4.043-.817.08-1.248.11v-2.084c.42-.029.838-.062 1.249-.102zm.835-.09c.43-.05.846-.11 1.249-.175v2.052c-.393.07-.81.135-1.249.192v-2.068zm2.083-.324c.442-.088.86-.183 1.25-.29v2.02c-.371.108-.79.212-1.25.31v-2.04zm-14.168 0v2.04c-.46-.098-.879-.202-1.25-.31v-2.02c.39.107.808.202 1.25.29zm.834.149c.403.065.82.125 1.249.176v2.068c-.44-.057-.856-.122-1.249-.192v-2.052zm2.083.266c.411.04.828.073 1.25.102v2.085c-.432-.031-.849-.068-1.25-.109v-2.078zm-1.033-2.5l-.127-.014-.089-.008v-2.077c.41.039.826.074 1.25.103v2.082c-.35-.024-.696-.053-1.034-.086zm-1.05-2.19v2.068c-.44-.057-.857-.123-1.249-.192v-2.052c.403.065.82.124 1.249.175zm8.195 2.256l-.279.022v-2.086c.424-.027.84-.062 1.252-.1v2.076c-.26.027-.521.051-.792.074l-.181.014zm1.804-.188v-2.069c.43-.05.847-.11 1.252-.175v2.052c-.393.07-.81.135-1.252.192zm2.084-2.393c.444-.088.86-.184 1.251-.29v2.021c-.372.106-.79.21-1.251.309v-2.04zm-5.697-1.912c-.313-.008-.62-.02-.921-.034l-.05-.002v-2.087a43.95 43.95 0 0 0 1.324.04c.115.003.23.005.343.005v2.089c-.201-.002-.407-.002-.604-.008-.03 0-.061 0-.092-.003zM2.918 6.971v-2.02c.388.106.807.203 1.249.29v2.04a21.122 21.122 0 0 1-.8-.186c-.157-.04-.307-.081-.45-.124zm7.572-1.125l.344.006v2.087a37.091 37.091 0 0 1-1.666-.047V5.805c.416.02.836.033 1.255.04h.067zm1.587 0c.419-.008.838-.023 1.257-.041v2.087c-.071.002-.14.008-.212.012h-.016c-.28.012-.565.023-.854.028l-.134.002c-.15.005-.301.005-.452.007V5.85l.344-.005h.067zm9.495.21l-.012-.004-.153.118c-.22.172-.558.347-.99.515V4.696a6.211 6.211 0 0 0 1.25-.576v1.73c0 .063-.034.133-.095.206zm-5.323 1.576V5.566c.43-.051.847-.11 1.252-.178v2.05c-.397.072-.812.135-1.252.194zm2.084-.353V5.241c.444-.087.86-.184 1.251-.29v2.016c-.374.11-.795.214-1.251.312zm-2.915-1.623V7.73c-.403.042-.82.08-1.252.11V5.758c.424-.029.84-.061 1.252-.102zM7.084 7.73V5.656c.41.04.826.073 1.25.102v2.08c-.424-.03-.843-.065-1.25-.107zM6.25 5.566v2.066c-.083-.012-.169-.02-.25-.03l-.157-.025a33.12 33.12 0 0 1-.706-.11l-.136-.024V5.39c.403.066.82.125 1.249.176zm4.48 7.287c-.057-.003-.112-.008-.17-.012a39.577 39.577 0 0 1-.943-.085c-.012-.002-.022-.005-.035-.005v-2.076c.412.039.828.073 1.252.102v2.083l-.104-.007zm-2.753-.312c-.165-.026-.32-.055-.478-.081v-2.053c.405.066.822.125 1.252.178v2.069c-.257-.035-.505-.07-.745-.109l-.029-.004zm-1.31-2.282v2.037c-.462-.1-.879-.204-1.251-.315V9.968c.39.107.807.203 1.251.29zm-2.083-.546V11.7c-.655-.253-1.079-.513-1.215-.744l-.028-.046-.009-.04V9.14c.334.21.756.401 1.252.573zm9.993 1.15c.42-.009.839-.02 1.255-.039v2.085c-.547.026-1.102.043-1.666.049v-2.089c.116 0 .23-.002.344-.004l.067-.002zm5.383 1.605a20.51 20.51 0 0 1-.555.092l-.332.049c-.105.014-.215.028-.323.04v-2.066c.43-.051.846-.11 1.251-.175v2.053l-.04.007zm-2.82.357c-.156.012-.317.02-.473.033v-2.08c.423-.03.84-.064 1.249-.103v2.074c-.242.025-.482.052-.733.072l-.042.004zm4.762-.784a19.042 19.042 0 0 1-.97.237c-.031.008-.066.014-.099.02v-2.04c.444-.087.86-.183 1.251-.287v2.019l-.182.051zm2.26-4.07c-.04.284-.68.662-1.823 1.017-1.475.458-3.782.876-6.706 1.005l-.45.018c-.126.004-.25.009-.378.01-.344.009-.694.015-1.056.015-.36 0-.71-.006-1.056-.015-.126-.001-.25-.006-.376-.01l-.452-.018c-2.921-.129-5.229-.547-6.704-1.005-1.135-.353-1.773-.727-1.822-1.01.002-.008.002-.015.008-.025.028.008.059.014.087.02a28.066 28.066 0 0 0 3.222.551h.013c.665.079 1.357.138 2.065.18.006 0 .01.003.017.003.002 0 .004-.003.007-.003.511.03 1.028.053 1.55.064a36.046 36.046 0 0 0 1.612.006c3.027-.047 5.833-.409 7.784-.968.092-.025.18-.05.265-.077l.159-.05c.15-.049.294-.098.434-.15.025-.009.047-.019.072-.027.118-.045.232-.092.34-.139.03-.015.063-.027.093-.041.116-.053.228-.106.332-.161.045-.025.085-.051.13-.076.05-.028.1-.057.147-.088.026-.016.057-.032.08-.048 1.866.406 2.36.849 2.406 1.023zM11.251 1.254c6.87 0 10.345 1.087 10.41 1.71-.05.282-.691.655-1.822 1.006-1.475.457-3.783.876-6.704 1.007-.15.006-.3.012-.452.016l-.376.013a46.44 46.44 0 0 1-2.112 0l-.378-.013c-.153-.004-.301-.01-.45-.016-2.924-.13-5.231-.55-6.706-1.007C1.53 3.618.889 3.245.84 2.963c.064-.623 3.54-1.71 10.41-1.71zM.834 5.853V4.12c.332.21.753.403 1.25.576v2.001c-.81-.304-1.25-.61-1.25-.845zm2.019 5.787c.005.006.014.012.022.02.57.578 1.75 1.031 3.22 1.37.035.008.07.017.104.022.108.025.218.05.33.072 1.349.29 2.962.498 4.718.6.002 0 .002.002.002.002.002 0 .002-.002.002-.002.566.035 1.141.058 1.731.068.26.004.517.008.767.008a42.26 42.26 0 0 0 2.495-.076l.005.002.01-.002c1.763-.104 3.414-.314 4.812-.618-.303.16-.718.322-1.232.484-1.557.482-4.043.92-7.2 1.023l-.283.01-.31.006a43.132 43.132 0 0 1-1.852-.006c-.127-.002-.251-.007-.377-.01l-.45-.018c-2.924-.131-5.231-.55-6.706-1.005-1.145-.358-1.786-.736-1.823-1.02.047-.156.468-.548 2.015-.93zm-2.019 3.83v-1.731c.332.21.753.402 1.25.575v1.996l-.239-.095-.004.007c-.655-.274-1.007-.54-1.007-.752zm1.25 4.6v-1.73c.333.21.754.401 1.248.575v2c-.81-.303-1.249-.61-1.249-.844zm19.584.846v-2.001a6.268 6.268 0 0 0 1.249-.576v1.732c0 .234-.44.54-1.25.845zm1.242-3.739c-.044.284-.685.66-1.823 1.013-1.472.456-3.78.874-6.703 1.005l-.452.018-.376.01a43.592 43.592 0 0 1-2.112 0l-.374-.012c-.153-.004-.303-.01-.454-.017-2.923-.13-5.23-.548-6.704-1.006-1.102-.341-1.74-.704-1.818-.984.124.043.252.086.384.126l.04.012c.113.035.228.07.347.103l.134.037.203.053c1.518.39 3.455.665 5.546.79h.003c.646.038 1.306.06 1.973.07.177.003.354.005.527.005.228 0 .464-.004.702-.008.608-.01 1.208-.032 1.794-.067l.004.002.004-.002a37.338 37.338 0 0 0 2.072-.182l.007.002c.009 0 .017-.004.025-.006a29.9 29.9 0 0 0 2.094-.312c.134-.025.266-.052.396-.078l.087-.018c1.232-.254 2.296-.582 3.028-.989.039-.02.077-.045.114-.065.047-.029.091-.057.134-.086.041-.024.086-.05.122-.075.824.294 1.05.557 1.076.661zm.007-5.46v-2a6.174 6.174 0 0 0 1.249-.577v1.73c0 .235-.44.541-1.25.847z"/>
</svg>
