<svg xmlns="http://www.w3.org/2000/svg" width="28" height="13" viewBox="0 0 28 13">
    <g fill="#CDCDCD" fill-rule="evenodd" stroke="none">
        <path d="M25.027 4.621c-.962 0-1.744-.766-1.744-1.708 0-.943.782-1.71 1.744-1.71s1.744.767 1.744 1.71c0 .942-.782 1.708-1.744 1.708zm-7.323 7.175c-.962 0-1.745-.766-1.745-1.709 0-.942.783-1.708 1.745-1.708.961 0 1.744.766 1.744 1.708 0 .943-.783 1.71-1.744 1.71zM8.552 2.913c0-.943.783-1.71 1.744-1.71.962 0 1.744.767 1.744 1.71 0 .942-.782 1.708-1.744 1.708-.961 0-1.744-.766-1.744-1.708zm-5.579 8.883c-.962 0-1.744-.766-1.744-1.709 0-.942.782-1.708 1.744-1.708s1.744.766 1.744 1.708c0 .943-.782 1.71-1.744 1.71zM25.027 0c-1.64 0-2.973 1.307-2.973 2.913 0 .585.178 1.13.483 1.588l-3.212 3.147a3 3 0 0 0-1.621-.473c-.62 0-1.196.187-1.673.506L12.786 4.5a2.852 2.852 0 0 0 .483-1.588C13.27 1.307 11.936 0 10.296 0S7.323 1.307 7.323 2.913c0 .585.178 1.13.483 1.588L4.594 7.648a2.998 2.998 0 0 0-1.621-.473C1.333 7.175 0 8.48 0 10.087 0 11.693 1.334 13 2.973 13c1.64 0 2.973-1.307 2.973-2.913 0-.585-.178-1.13-.483-1.588l3.212-3.147a2.999 2.999 0 0 0 1.621.473c.598 0 1.155-.174 1.622-.473L15.18 8.55c-.285.447-.45.974-.45 1.538 0 1.606 1.333 2.913 2.973 2.913 1.639 0 2.973-1.307 2.973-2.913 0-.585-.178-1.13-.483-1.588l3.212-3.147a2.999 2.999 0 0 0 1.621.473C26.667 5.825 28 4.52 28 2.913 28 1.306 26.666 0 25.027 0z"/>
        <path d="M8.758 7.338L7.482 8.59a.607.607 0 0 0 0 .87.632.632 0 0 0 .887 0l1.277-1.252a.607.607 0 0 0 0-.87.636.636 0 0 0-.888 0M18.798 5.843c.16 0 .321-.06.444-.18l1.276-1.253a.607.607 0 0 0 0-.87.636.636 0 0 0-.887 0l-1.277 1.252a.607.607 0 0 0 0 .87c.123.12.283.18.444.18"/>
    </g>
</svg>
