<svg xmlns="http://www.w3.org/2000/svg" width="14" height="14" viewBox="0 0 14 14">
    <path fill="#030303" fill-rule="evenodd" stroke="none" d="M13.61 9.303A6.97 6.97 0 0 0 14 7a6.968 6.968 0 0 0-.412-2.366C12.616 1.935 10.03 0 7 0 3.97 0 1.384 1.935.412 4.634A6.968 6.968 0 0 0 0 7a6.97 6.97 0 0 0 .412 2.366C1.384 12.065 3.97 14 7 14c3.03 0 5.616-1.935 6.588-4.634a.465.465 0 0 0 .022-.063zM7 12.997c-.267 0-.696-.483-1.056-1.56a10.988 10.988 0 0 1-.413-1.77H8.47c-.101.651-.24 1.249-.413 1.77-.36 1.077-.79 1.56-1.056 1.56zM5.41 8.664a18.52 18.52 0 0 1 0-3.328h3.18a18.64 18.64 0 0 1 0 3.328H5.41zM1.002 7c0-.577.082-1.136.236-1.664h3.164a19.486 19.486 0 0 0 0 3.328H1.239A5.972 5.972 0 0 1 1.003 7zM7 1.003c.267 0 .696.483 1.056 1.56.173.52.312 1.119.413 1.77H5.53c.101-.652.24-1.25.413-1.77.36-1.077.79-1.56 1.056-1.56zm2.597 4.333h3.164a5.98 5.98 0 0 1 0 3.328H9.597a19.489 19.489 0 0 0 0-3.328zm2.772-1.004H9.482c-.178-1.23-.485-2.335-.914-3.12a6.023 6.023 0 0 1 3.801 3.12zm-6.937-3.12c-.43.785-.736 1.89-.914 3.12H1.63a6.023 6.023 0 0 1 3.801-3.12zM1.631 9.668h2.887c.178 1.23.485 2.335.914 3.12a6.024 6.024 0 0 1-3.801-3.12zm6.937 3.12c.43-.785.736-1.89.914-3.12h2.887a6.024 6.024 0 0 1-3.801 3.12z"/>
</svg>
