<svg xmlns="http://www.w3.org/2000/svg" width="99" height="18" viewBox="0 0 99 18">
    <path fill="#000" fill-rule="evenodd" d="M0 0h7.37l2.844 10.952L13.046 0h7.345v18h-4.575V4.273L12.266 18H8.125L4.588 4.273V18H0V0zm35.119 15.029h-6.381L27.86 18h-5.725l6.813-18h6.109l6.813 18H36.01l-.89-2.971zm-1.175-3.893l-2.003-6.47-1.991 6.47h3.994zM42.39 0h17.027v4.445h-5.713V18h-5.601V4.445H42.39V0zm25.176 6.937h2.993c2.745 0 4.781.481 6.108 1.443 1.328.962 1.991 2.458 1.991 4.488 0 1.661-.608 2.932-1.824 3.812-1.216.88-2.961 1.32-5.236 1.32h-9.621V0h15.26v3.647h-9.67v3.29zm0 7.195h2.87c1.755 0 2.633-.63 2.633-1.89 0-1.106-.878-1.658-2.634-1.658h-2.869v3.548zM99 0v18h-5.268V8.116L86.943 18h-5.28V0h5.28v9.958L93.77 0H99z"/>
</svg>
