<svg xmlns="http://www.w3.org/2000/svg" xmlns:xlink="http://www.w3.org/1999/xlink" width="17" height="17" viewBox="0 0 17 17">
    <defs>
        <path id="a" d="M.002.022h8.716v16.093H.002z"/>
    </defs>
    <g fill="none" fill-rule="evenodd">
        <g>
            <mask id="b" fill="#fff">
                <use xlink:href="#a"/>
            </mask>
            <path fill="#0A090B" d="M8.048 14.776H2.012a.67.67 0 0 1-.67-.67V2.033c0-.37.3-.67.67-.67h6.036a.67.67 0 1 0 0-1.342H2.012C.902.022 0 .925 0 2.034v12.071c0 1.11.903 2.012 2.012 2.012h6.036a.67.67 0 1 0 0-1.341" mask="url(#b)"/>
        </g>
        <path fill="#0A090B" d="M15.949 7.592L11.87 3.568a.67.67 0 1 0-.941.955L13.844 7.4H6.036a.67.67 0 1 0 0 1.341h7.808l-2.914 2.876a.67.67 0 1 0 .941.955l4.078-4.024a.672.672 0 0 0 0-.955"/>
    </g>
</svg>
