<svg xmlns="http://www.w3.org/2000/svg" xmlns:xlink="http://www.w3.org/1999/xlink" width="26" height="26" viewBox="0 0 26 26">
    <defs>
        <path id="a" d="M.004.026h25.97V26H.005z"/>
    </defs>
    <g fill="none" fill-rule="evenodd" stroke="none">
        <path fill="#CDCDCD" d="M8.253 10.151a.432.432 0 0 0-.357-.235l-3.642-.242a.425.425 0 0 0-.432.274l-2.625 6.71a.432.432 0 0 0 .663.503l2.179-1.634 1.268.254a.433.433 0 0 0 .49-.27 28.142 28.142 0 0 1 2.437-4.933.433.433 0 0 0 .019-.427zm-3.133 4.71l-1.102-.221a.436.436 0 0 0-.344.078l-1.117.837 1.956-4.997 2.613.174A29.262 29.262 0 0 0 5.12 14.86zM16.327 21.746l-.243-3.642a.434.434 0 0 0-.663-.338 28.14 28.14 0 0 1-4.932 2.437.432.432 0 0 0-.27.49l.254 1.268-1.634 2.179a.433.433 0 0 0 .504.664l6.71-2.626a.433.433 0 0 0 .274-.432zm-5.883 1.696l.837-1.116a.433.433 0 0 0 .078-.345l-.22-1.102a29.205 29.205 0 0 0 4.128-2.006l.174 2.614-4.997 1.955z"/>
        <g>
            <mask id="b" fill="#fff">
                <use xlink:href="#a"/>
            </mask>
            <path fill="#CDCDCD" d="M12.554 13.013H9.637a.434.434 0 0 0-.378.222l-3.661 6.578a.433.433 0 0 0 .602.58l6.578-3.98a.433.433 0 0 0 .208-.37v-2.597a.433.433 0 0 0-.432-.433zm-.433 2.786l-4.974 3.01 2.744-4.93h2.23v1.92z" mask="url(#b)"/>
            <path fill="#CDCDCD" d="M25.953.442a.433.433 0 0 0-.396-.395C25.414.036 11.16-.96 4.988 15.202a.432.432 0 0 0 .098.46l2.059 2.058a.435.435 0 0 0 .685-.097l2.062-3.745h2.229v1.926l-3.767 2.379a.434.434 0 0 0-.075.672l2.058 2.058a.432.432 0 0 0 .46.099C26.96 14.84 25.966.586 25.954.442zm-2.27 7.68c-1.52 3.759-4.996 8.868-12.933 11.98l-1.476-1.476 3.51-2.216a.434.434 0 0 0 .202-.366v-2.598a.433.433 0 0 0-.432-.433H9.636a.433.433 0 0 0-.38.224L7.35 16.701 5.898 15.25C11.314 1.431 22.86.866 25.105.897c.016 1.01-.077 3.895-1.423 7.226zM7.415 19.145a.432.432 0 0 0-.39-.17.433.433 0 0 0-.17-.39 2.707 2.707 0 0 0-2.312-.451 2.912 2.912 0 0 0-1.945 1.623l-2.56 5.63a.433.433 0 0 0 .574.574l5.63-2.56a2.91 2.91 0 0 0 1.623-1.944 2.707 2.707 0 0 0-.45-2.312zm-.388 2.099a2.052 2.052 0 0 1-1.142 1.37l-4.58 2.08 2.081-4.58a2.05 2.05 0 0 1 1.851-1.202c.27 0 .534.058.774.17l-.412.73a.432.432 0 0 0 .59.59l.73-.413c.177.382.217.822.108 1.255z" mask="url(#b)"/>
            <path fill="#CDCDCD" d="M25.953.443a.433.433 0 0 0-.396-.396c-.168-.013-4.181-.317-8.9 1.857a.432.432 0 0 0-.126.699l6.866 6.865a.434.434 0 0 0 .7-.124C26.27 4.624 25.966.61 25.952.443zm-2.39 7.966L17.59 2.437C21.045.98 24.07.878 25.105.896c.017 1.035-.08 4.05-1.542 7.513z" mask="url(#b)"/>
        </g>
        <path fill="#CDCDCD" d="M19.118 6.882a3.737 3.737 0 0 0-5.28 0 3.738 3.738 0 0 0 0 5.28 3.72 3.72 0 0 0 2.64 1.092c.956 0 1.912-.365 2.64-1.092a3.738 3.738 0 0 0 0-5.28zm-.612 4.668a2.871 2.871 0 0 1-4.056 0 2.871 2.871 0 0 1 0-4.056 2.86 2.86 0 0 1 2.028-.839c.734 0 1.469.28 2.028.839a2.871 2.871 0 0 1 0 4.056z"/>
        <path fill="#CDCDCD" d="M17.338 10.382a1.218 1.218 0 1 1 0-1.721.432.432 0 1 0 .612-.612 2.085 2.085 0 0 0-2.946 0 2.085 2.085 0 0 0 0 2.946c.407.406.94.609 1.474.609.533 0 1.067-.203 1.472-.61a.432.432 0 1 0-.612-.612z"/>
    </g>
</svg>
