<svg xmlns="http://www.w3.org/2000/svg" xmlns:xlink="http://www.w3.org/1999/xlink" width="20" height="24" viewBox="0 0 20 24">
    <defs>
        <path id="a" d="M0 .08h19.867v23.781H0z"/>
    </defs>
    <g fill="none" fill-rule="evenodd" stroke="none">
        <g>
            <mask id="b" fill="#fff">
                <use xlink:href="#a"/>
            </mask>
            <path fill="#CDCDCD" d="M19.842 6.204a95.962 95.962 0 0 1-.024-1.835.83.83 0 0 0-.828-.833c-3.539 0-6.234-1.023-8.48-3.22a.824.824 0 0 0-1.154 0c-2.246 2.197-4.94 3.22-8.48 3.22a.83.83 0 0 0-.827.833c0 .586-.011 1.193-.024 1.835-.113 5.975-.269 14.158 9.637 17.611a.83.83 0 0 0 .542 0c9.906-3.453 9.75-11.636 9.638-17.611zm-9.909 16.51c-8.975-3.28-8.84-10.463-8.719-16.81l.02-1.111c3.501-.148 6.301-1.216 8.7-3.316 2.397 2.1 5.198 3.168 8.7 3.316.005.362.012.731.02 1.111.12 6.346.255 13.53-8.72 16.81z" mask="url(#b)"/>
        </g>
        <path fill="#CDCDCD" d="M12.786 9.361L8.88 13.603l-1.667-1.81a.764.764 0 0 0-1.144 0 .933.933 0 0 0 0 1.242l2.239 2.432a.775.775 0 0 0 .572.257.775.775 0 0 0 .572-.257l4.477-4.863a.933.933 0 0 0 0-1.243.764.764 0 0 0-1.144 0z"/>
    </g>
</svg>
